<?xml version="1.0" encoding="UTF-8"?>
<svg id="a" data-name="Layer 1" xmlns="http://www.w3.org/2000/svg" viewBox="0 0 747.46 362.97">
  <g>
    <g>
      <path d="M0,321.55v-80.84h35.03v54.79c0,4.04,1.8,6.74,5.39,6.74s5.39-2.69,5.39-6.74v-49.4c0-6.74-.9-8.98-5.84-13.02l-18.41-14.82C5.39,205.24,0,197.6,0,168.86v-84.43c0-26.05,17.51-40.87,40.42-40.87s40.42,14.82,40.42,40.87v75.9h-34.58v-49.85c0-4.04-1.8-6.74-5.39-6.74s-5.39,2.69-5.39,6.74v44.46c0,6.29,2.25,9.43,5.39,12.13l19.31,15.72c17.07,13.92,21.56,22,21.56,49.85v88.92c0,26.05-17.96,40.87-40.87,40.87S0,347.6,0,321.55Z" fill="#ffffff"/>
      <path d="M110.02,105.99h-22.01v-60.18h79.04v60.18h-22v254.19h-35.03V105.99Z" fill="#ffffff"/>
      <path d="M175.13,321.55V45.81h35.03v249.7c0,4.04,1.8,6.74,5.39,6.74s5.39-2.69,5.39-6.74V45.81h35.03v275.74c0,26.05-17.07,40.87-40.42,40.87s-40.42-14.82-40.42-40.87Z" fill="#ffffff"/>
      <path d="M602.86,257.33l-24.7-211.52h34.58l4.94,124.85h.9l6.29-124.85h36.38l-23.35,211.07v103.29h-35.03v-102.84Z" fill="#ffffff"/>
      <path d="M666.62,321.55V45.81h35.03v249.7c0,4.04,1.8,6.74,5.39,6.74s5.39-2.69,5.39-6.74V45.81h35.03v275.74c0,26.05-17.07,40.87-40.42,40.87s-40.42-14.82-40.42-40.87Z" fill="#ffffff"/>
    </g>
    <path d="M427.79,44.97h-159v318h159c87.81,0,159-71.19,159-159s-71.19-159-159-159Z" fill="#ffffff"/>
  </g>
  <rect x="689.52" y="-22.9" width="35.03" height="80.84" transform="translate(724.55 -689.52) rotate(90)" fill="#ffffff"/>
</svg>
